<svg width="160" height="40" viewBox="0 -9 277.5 74.17659353570129" class="looka-1j8o68f">
	<defs id="SvgjsDefs8198">
	</defs>
	<g id="SvgjsG8199" featurekey="monogramFeature-0" transform="matrix(1.2414588342840318,0,0,1.2414588342840318,0,-36.113461130194835)" fill="#ffffff">
		<path d="M41.46 21.9 c0 -0.06 0.06 -0.06 0.12 -0.06 c0 0.06 -0.12 0.06 -0.12 0.06 z M38.88 21.9 c0.12 0.06 -0.12 0.24 -0.24 0.18 c-0.12 -0.24 0.24 0 0.24 -0.18 z M37.86 21.96 c0.18 0 0.3 0.18 0.18 0.24 c-0.06 -0.06 -0.18 -0.06 -0.18 -0.24 z M43.92 22.020000000000003 c0.12 -0.24 0 0.48 0 0 l0 0 z M44.46 22.020000000000003 c0.12 0 0.12 0.12 0.24 0.06 c0 0.12 -0.36 0.12 -0.24 -0.06 z M45.9 22.619999999999997 c0 0.06 0.06 0.06 0.12 0.06 c0 -0.18 -0.06 -0.06 -0.12 -0.06 c-0.06 -0.18 -0.24 -0.24 -0.24 -0.42 c0.24 0.12 0.66 0.06 0.66 0.42 c0.12 0 0.12 -0.12 0.12 -0.24 c0.48 0.18 0.72 0.6 0.78 1.26 c-0.3 0.66 0.42 1.02 0.24 1.62 c-0.3 0.12 -0.06 -0.24 -0.24 -0.24 c-0.24 0.12 0.06 0.36 0 0.6 c-0.72 0.48 -1.56 0.9 -2.4 1.26 c-0.06 0 -0.06 0 -0.06 0.06 c-2.04 0.36 -3.78 0.78 -5.88 1.08 c-0.24 -0.06 0.06 -0.3 0.06 -0.42 c-0.24 0 -0.96 0.12 -1.02 -0.3 c-0.18 0.24 -0.42 -0.06 -0.42 0.36 c0 -0.12 -0.24 -0.12 -0.24 -0.36 c0.24 -0.12 0.42 0.06 0.6 -0.12 c-0.96 -0.06 -2.1 0.42 -3.18 0.54 c0 -0.12 0 -0.18 -0.06 -0.24 c0 0.18 -1.08 0.48 -1.44 0.12 c1.92 -0.6 3.78 -0.9 5.46 -1.26 c0.18 -0.12 0.3 -0.3 0.3 -0.54 c0.12 0.06 0.12 -0.06 0.3 -0.06 c0 0.18 -0.3 0.18 -0.3 0.42 c0.12 0.06 0.36 0 0.72 0 l0 -0.24 c0 -0.12 -0.18 -0.06 -0.3 -0.06 c0 -0.24 0.3 -0.18 0.42 -0.24 c0.12 0.12 -0.06 0.12 0 0.3 c0 0.18 0.3 0.06 0.42 0.06 s0 -0.18 0.12 -0.24 c0.06 -0.12 -0.24 0.06 -0.3 0.06 c-0.18 -0.42 0.66 -0.36 1.02 -0.48 c-0.12 0.3 -0.54 0.24 -0.6 0.48 c0.3 0.06 0.66 -0.3 1.02 -0.12 c0.18 -0.06 0.06 -0.54 0.36 -0.54 c0 0.18 -0.18 0.12 -0.12 0.36 c0.24 0.06 0.18 -0.18 0.18 -0.36 c0.84 0.12 1.62 -0.42 2.4 -0.6 c0 -0.18 -0.3 -0.06 -0.18 -0.24 c-0.12 0 -0.12 0.12 -0.12 0.18 c-0.6 -0.12 -1.14 -0.12 -1.68 -0.12 c-0.18 0 -0.06 -0.36 -0.42 -0.3 c-0.18 0.06 0.06 0.18 0 0.3 c-0.18 0.06 -0.36 0 -0.42 -0.18 c-0.18 -0.06 -0.24 0.06 -0.24 0.18 c-0.12 0 -0.12 -0.12 -0.18 -0.12 c0.06 0.12 -0.18 0.12 -0.48 0.12 c-0.06 0 -0.12 -0.12 -0.06 -0.3 c-0.12 0.06 -0.12 0.12 -0.12 0.18 c-0.06 0 -0.12 -0.06 -0.12 -0.18 c-0.18 0.06 -0.12 0.24 -0.24 0.3 c-0.24 -0.36 -0.48 -0.12 -0.84 -0.12 c0 0.12 0.18 0.06 0.12 0.12 c-0.24 0 -0.18 -0.3 -0.48 -0.18 c-0.12 0.18 0.12 0.06 0.18 0.18 c0 0.18 -0.42 0.06 -0.66 0.12 c-0.06 -0.18 0.18 -0.12 0.24 -0.18 c-0.36 -0.12 -1.08 -0.24 -1.26 0.18 c-0.24 -0.12 -0.36 0.06 -0.54 0.12 c-0.18 -0.06 -0.24 -0.24 -0.42 -0.3 c-1.38 0 -3.12 0.6 -4.32 0.24 c-0.06 0.12 -0.18 0.24 -0.3 0.36 c-0.84 -0.12 -1.62 0.3 -2.4 0.12 c0.06 -0.18 0 -0.24 -0.06 -0.36 l-0.36 0 s-0.06 0.3 -0.06 0.42 c0.18 0 0.18 -0.12 0.18 -0.24 c0.18 0 0.06 0.24 0.3 0.18 c-0.6 0.24 -1.26 0.36 -1.92 0.3 c0 -0.24 0 -0.24 0.24 -0.18 c0 -0.12 -0.06 -0.12 -0.06 -0.24 c-0.18 0 -0.12 0.18 -0.36 0.12 c0 -0.24 -0.12 -0.42 0.06 -0.66 c0.12 0 -0.06 0.36 0.12 0.3 c0.3 0.12 0 -0.42 0.24 -0.3 c-0.06 0.18 -0.12 0.3 0.24 0.24 c-0.18 -0.12 0.54 -0.54 0.48 -0.12 c0.18 -0.12 0.24 -0.42 0.54 -0.3 c0.12 0.12 -0.06 0.12 0.06 0.18 c0.42 0.06 0.42 0 0.72 -0.06 c0.06 -0.18 -0.24 0.06 -0.12 -0.24 c0.06 0 0.12 0.12 0.12 0 c0.12 0.06 0.06 0.18 0.12 0.3 c0.18 -0.06 0.3 -0.12 0.42 0 c0.12 -0.12 0.36 -0.24 0.24 -0.66 c0.42 0.12 0.36 0.24 0.54 0.18 c0 0.18 -0.06 0.3 0 0.42 c0.18 -0.12 0.48 -0.12 0.3 -0.42 c0.24 0.06 0.18 -0.12 0.36 -0.06 c0 0.24 -0.06 0.24 0.06 0.42 c0.18 0.06 0.12 -0.18 0.24 -0.18 c0.06 -0.18 -0.18 -0.12 -0.12 -0.36 c0.12 0.06 0.18 -0.06 0.12 -0.12 c0.12 0.18 0.18 0.3 0.24 0.48 c0.36 0.12 0.24 -0.42 0.36 -0.48 c0.06 0.06 0.36 0.18 0.12 0.3 c0 0.12 0.18 0.12 0.36 0.12 c0 -0.12 0 -0.24 -0.12 -0.3 c-0.06 -0.12 0.3 0.06 0.24 -0.06 c0.18 0.06 0 0.24 0 0.36 l0.12 0 c0.18 -0.12 0.06 -0.18 0.06 -0.36 c0.06 0 0.18 0 0.18 -0.06 c0.18 0 0.12 0.18 0.12 0.36 c0.24 -0.24 0.48 -0.54 0.96 -0.36 c0 0.24 0.24 0 0 0 c0 -0.12 0 -0.18 0.18 -0.18 c-0.06 0.24 0.06 0.36 0.18 0.42 c0.24 -0.12 -0.12 -0.24 0.06 -0.3 c0.12 0.12 0.84 0.24 0.84 -0.18 c0.12 0.06 0.12 0.18 0.18 0.3 c0.3 0 0.78 -0.3 0.84 0 c0.12 0 0.06 -0.18 0.06 -0.3 s-0.18 -0.06 -0.24 -0.06 c0.06 -0.24 0 -0.36 -0.06 -0.42 c0.12 -0.06 0.18 0.12 0.12 0.18 c0.18 0.12 0.12 -0.12 0.12 -0.18 c0.12 0.06 0.12 0.3 0.42 0.18 c0.06 0.3 -0.24 0.18 -0.3 0.36 c0 0.24 0.54 0.18 0.54 -0.06 c0.36 0.3 0.54 0 1.02 0 c0 -0.12 0.12 -0.36 0.36 -0.42 c0 0.18 -0.06 0.24 -0.12 0.36 c0.06 0.36 0.36 0.06 0.54 0.24 c0 -0.06 0 -0.18 -0.06 -0.18 c0.36 -0.18 0.78 0 1.2 0 c0.3 0 0.48 -0.18 0.72 -0.18 c0.42 0 0.6 0.12 0.9 0.06 c0.9 -0.18 1.8 0.48 2.46 0.06 c0.12 0.24 0.3 0.18 0.42 0.24 c0.3 -0.06 0.06 -0.54 0.36 -0.3 c-0.06 -0.24 -0.42 -0.12 -0.18 -0.36 c0 -0.12 -0.12 -0.12 -0.24 -0.12 c-0.06 0.06 0 0.48 -0.24 0.48 c0 -0.12 0 -0.24 -0.06 -0.3 c0.3 -0.06 0.06 -0.36 0.12 -0.54 c0.12 -0.06 0.48 0.3 0.48 -0.06 c0 -0.12 -0.12 0.12 -0.3 0 c0 -0.12 -0.06 -0.12 -0.06 -0.24 c0.36 0.06 0.42 0.06 0.66 0.12 c-0.06 0.12 -0.18 0.12 -0.24 0.3 c0.06 0.24 0.36 0.12 0.6 0.12 z M46.2 22.740000000000002 c0.12 0.18 0.18 -0.24 0 0 l0 0 z M45.6 22.979999999999997 c0.06 -0.18 -0.18 -0.06 -0.24 -0.12 c0 0.12 0.12 0.12 0.24 0.12 z M46.2 23.64 c0.18 0.06 0.18 -0.3 0 -0.24 l0 0.24 z M40.68 23.64 l-0.36 0 c-0.06 0.24 0.36 0.24 0.36 0 z M37.8 23.82 c0.06 0.24 0.06 -0.24 0 0 l0 0 z M38.16 23.82 c-0.12 0.24 0.42 0.06 0.42 -0.12 c-0.18 0 -0.36 0 -0.42 0.12 z M39.66 23.82 c0.06 0 0 -0.06 0 0 l0 0 z M35.58 24 l0.12 0 c0.12 -0.18 -0.24 -0.18 -0.18 -0.06 c0 0 0.06 0 0.06 0.06 z M32.22 24.479999999999997 c0 -0.12 -0.06 -0.12 -0.18 -0.18 c0 0.06 0 0.18 0.18 0.18 z M28.56 24.54 c0.12 0 0.18 0 0.3 0.06 l0 -0.24 l-0.24 0 c0 0.06 -0.06 0.12 -0.06 0.18 z M31.2 24.479999999999997 c0.06 0.24 0.18 -0.24 0 0 l0 0 z M32.58 24.54 l0.12 0 l0 -0.18 l-0.12 0 l0 0.18 z M31.86 24.6 c0.06 0.06 -0.06 0 0 0 l0 0 z M29.88 24.659999999999997 c0.06 0.06 -0.06 0 0 0 l0 0 z M44.16 25.259999999999998 c0.48 0.12 0.9 -0.24 1.38 -0.3 c0 -0.18 0 -0.24 -0.12 -0.3 c-0.42 0.24 -0.9 0.36 -1.26 0.6 z M28.56 25.020000000000003 c0.06 0.06 -0.06 0 0 0 l0 0 z M28.2 25.08 c-0.06 0 -0.12 0 -0.12 0.06 c0.06 -0.06 0.12 0 0.12 -0.06 z M43.98 25.32 c-0.12 -0.12 -0.12 0.24 0 0.24 l0 -0.24 c0.12 -0.06 0 -0.06 0 0 z M41.58 26.340000000000003 c0.06 0.06 -0.06 0 0 0 l0 0 z M37.98 27.18 c0.24 -0.12 0.24 0 0.3 0.06 c0.06 -0.36 0.48 0 0.6 -0.36 c-0.42 0.18 -0.66 -0.06 -0.9 0.3 z M39.9 27.299999999999997 l0.12 0 l0 -0.06 l-0.12 0 l0 0.06 z M38.7 27.36 c0.18 0.3 0.12 -0.18 0 0 l0 0 z M34.98 22.200000000000003 c0.06 0.24 -0.24 0 -0.3 0.12 c-0.18 -0.12 0.18 -0.12 0.3 -0.12 z M35.34 22.200000000000003 c0.06 -0.24 0.06 0.3 0 0 l0 0 z M39.54 22.200000000000003 c0.12 0.18 0.24 -0.06 0.42 0.06 c0.12 0.36 -0.3 0.12 -0.36 0.3 c-0.18 -0.12 -0.12 -0.18 -0.06 -0.36 z M40.32 22.200000000000003 c0.06 0 0.12 0.12 0.12 0.3 c-0.18 -0.06 -0.18 -0.06 -0.42 0 c-0.06 -0.3 0.36 -0.06 0.3 -0.3 z M44.52 22.86 l-0.06 0 c-0.06 0.06 0 0.06 0.06 0.06 c-0.06 0.12 0.06 0.18 0.06 0.3 c-0.18 -0.12 -0.9 0.18 -0.96 -0.24 c0.12 0 0.24 0 0.24 -0.06 c0.12 0 0.12 0.12 0.3 0.06 c0.18 -0.12 -0.18 -0.12 -0.06 -0.42 c-0.84 -0.06 -1.68 -0.12 -2.52 -0.24 c-0.18 0.3 0.12 0.18 0.06 0.54 c-0.18 -0.06 -0.18 -0.3 -0.3 -0.48 c-0.36 0 -0.54 0.3 -0.84 -0.06 c1.2 -0.12 2.46 -0.12 4.14 0.06 c0.06 0.3 -0.24 0.18 -0.12 0.48 z M38.22 22.32 c-0.42 0.24 -1.02 0.36 -1.32 0.06 c0.48 0 0.9 0 1.32 -0.06 z M34.26 22.380000000000003 c0 -0.06 0.06 -0.06 0.12 -0.06 c0 0.06 -0.06 0.06 -0.12 0.06 z M38.46 22.380000000000003 c0 -0.18 0.18 0.18 0.18 -0.06 c0.24 0.12 -0.18 0.24 -0.18 0.06 z M39.12 22.380000000000003 c0.24 -0.18 0.36 0.24 0 0 l0 0 z M33 22.5 l0 0 c0.06 0 0 -0.06 0 0 z M33.18 22.5 c0 -0.12 0 -0.06 0.06 -0.12 c0 0.12 -0.06 0.06 -0.06 0.12 z M36.84 22.5 c-0.24 0.42 -1.02 -0.18 -1.14 0.42 c-0.06 0 -0.06 -0.12 -0.06 -0.24 c-0.36 0.06 -0.36 0.06 -0.78 0.06 c0.3 -0.36 1.44 -0.18 1.98 -0.24 z M38.46 22.380000000000003 c0 0.12 -0.12 0.06 0 0 l0 0 z M40.14 22.560000000000002 c0.18 0 0 0.42 0.36 0.36 c0 0.36 -0.3 0.18 -0.48 0.12 c0.12 -0.18 0.12 -0.12 0.12 -0.48 z M31.32 22.68 l0 0 c0.06 0.06 0 0 0 0 z M34.32 22.619999999999997 c0.12 0.06 0 0.12 0 0.24 c-0.12 -0.06 0 -0.18 0 -0.24 z M34.5 22.68 c0 -0.18 0.18 0 0.12 0.18 l-0.12 0 c0 -0.06 0.06 -0.18 0 -0.18 z M40.86 22.68 l0 0 c0.06 0.06 -0.06 0 0 0 z M33.96 22.740000000000002 c0.12 -0.24 0.18 0.24 0 0 l0 0 z M39.78 22.68 c-0.06 0.12 -0.12 0.18 -0.18 0.18 c0 -0.12 0.06 -0.18 0.18 -0.18 z M41.88 22.740000000000002 c0 0 0.12 -0.12 0.24 -0.06 c0.12 0.12 -0.3 0.3 -0.24 0.06 z M43.2 22.92 c0 0.12 -0.06 0.18 -0.06 0.24 c-0.24 -0.12 -0.54 -0.12 -0.78 -0.12 c0.12 -0.12 0 -0.12 0 -0.36 c0.18 0 0.24 0.18 0.42 0.24 c0.12 0 0 -0.18 0.12 -0.24 c0.3 -0.12 0 0.36 0.3 0.24 z M43.2 22.92 c0 -0.06 -0.12 -0.06 -0.06 -0.18 c0.18 -0.18 0.42 0.12 0.36 0.42 c-0.24 0.06 -0.12 -0.24 -0.3 -0.24 z M43.86 22.92 l-0.24 0 c0 -0.12 0.06 -0.18 0.06 -0.24 l0.18 0 l0 0.24 z M33.06 22.740000000000002 l0.12 0.12 l0 0.06 l-0.18 0 c0 -0.06 0.06 -0.06 0.06 -0.18 z M33.6 22.86 c0 -0.12 0.36 -0.18 0.3 0.06 c-0.12 0 -0.18 -0.12 -0.3 -0.06 z M38.52 22.86 l0 0 c0.06 0 -0.06 -0.06 0 0 z M39 22.740000000000002 c0.18 0.06 0.3 0.18 0.36 0.18 c0.06 0.24 -0.12 0.12 -0.12 0 c-0.06 0 -0.06 0.12 -0.06 0.24 c-0.12 0.18 -0.06 -0.3 -0.18 -0.42 z M44.52 22.86 c0.06 0 0.12 0.06 0.12 0.06 l-0.12 0 l0 -0.06 z M32.7 22.92 c0.12 -0.24 0.12 0.3 0 0 l0 0 z M39.78 22.92 l0.12 0 c0 0.06 -0.06 0.06 -0.06 0.12 c-0.06 0 -0.06 -0.06 -0.18 -0.06 c0.06 -0.06 0.12 -0.06 0.12 -0.06 z M41.7 22.92 c0.12 -0.24 0.12 0.3 0 0 l0 0 z M42.24 22.92 c0.06 -0.24 0.06 0.3 0 0 l0 0 z M28.56 22.979999999999997 l0 0 c0.06 0.06 -0.06 0 0 0 z M32.04 22.979999999999997 l0 0 c0.06 0.06 0 0 0 0 z M41.16 22.92 c0.18 0 0.24 0 0.36 0.06 c0 0.12 -0.42 0.18 -0.36 -0.06 z M31.14 23.04 c0 0.24 -0.24 0.18 -0.12 0.48 c-0.24 -0.24 -0.54 -0.18 -0.78 -0.24 c0.06 -0.12 0.06 -0.24 0.24 -0.24 c0.06 0.36 0.42 -0.12 0.66 0 z M31.26 22.979999999999997 l0.12 0 l0 0.18 l-0.12 0 l0 -0.18 z M31.86 23.04 l0 0 c0.06 0.06 -0.06 0 0 0 z M33.84 22.979999999999997 c0.18 -0.06 0.18 0.42 0 0.36 l0 -0.36 z M35.22 23.04 l0 0 c0.06 0.06 -0.06 0 0 0 z M28.14 23.159999999999997 l0 0 l0 0 z M32.22 23.04 c0.18 0.06 0.12 0.24 0.06 0.3 c-0.12 0 -0.06 -0.18 -0.06 -0.3 z M34.14 23.04 c0.18 -0.06 0.12 0.18 0.12 0.3 c-0.12 0 -0.18 -0.12 -0.12 -0.3 z M35.88 23.340000000000003 c-0.3 -0.06 -0.42 0.18 -0.54 0 c-0.06 -0.18 0.12 -0.12 0.12 -0.3 c0.06 0.18 0.24 0.24 0.42 0.3 z M36.48 23.159999999999997 c-0.12 0.06 -0.12 0.18 -0.3 0.18 c-0.06 -0.18 0.12 -0.18 0.3 -0.18 z M44.94 23.22 c0.12 -0.3 0.12 0.3 0 0 l0 0 z M27.72 23.28 l0 0 c0.06 0.06 0 0 0 0 z M29.82 23.22 c0.12 -0.06 0.06 0.3 -0.12 0.18 l0 -0.12 c0.06 0 0.06 0 0.12 -0.06 z M29.28 23.340000000000003 l0 0.24 c-0.24 -0.24 -0.24 0.06 -0.54 -0.06 c-0.12 -0.06 0.3 -0.18 0.42 -0.24 c0 0.06 0.06 0.06 0.12 0.06 z M29.28 23.340000000000003 l0 0 c0.12 -0.06 0 -0.06 0 0 z M29.52 23.340000000000003 c0.06 -0.3 0.06 0.3 0 0 l0 0 z M33.24 23.28 c0.3 0.06 -0.06 0.36 0 0 l0 0 z M28.38 23.520000000000003 c0.12 -0.3 0.12 0.18 0 0 l0 0 z M31.5 23.4 c0.06 0.06 0 0.18 0.12 0.18 c-0.06 0.12 -0.24 0 -0.12 -0.18 z M27.84 23.58 c-0.12 0 -0.06 -0.12 0 0 l0 0 z M28.14 23.58 c0 -0.06 0.06 -0.06 0.12 -0.06 c0 0.06 -0.12 0.06 -0.12 0.06 z M27.48 23.58 c0.24 0.12 -0.18 0.18 0 0 l0 0 z M27.84 23.58 c0.06 0 0.12 0 0.12 0.06 l-0.12 0 l0 -0.06 z M31.8 23.64 c0.18 -0.3 0.06 0.18 0 0 l0 0 z M31.32 23.64 c0.12 -0.24 0.12 0.3 0 0 l0 0 z M26.82 23.700000000000003 l0 0 c0 0.06 -0.06 0 0 0 z M26.58 23.82 c-0.12 0 -0.06 -0.12 0 0 l0 0 z M26.04 23.82 c0.12 0.18 -0.06 0.12 -0.18 0.12 c0 -0.12 0.12 -0.18 0.18 -0.12 z M26.58 23.82 c0.24 -0.12 0 0.18 0 0 l0 0 z M25.56 23.939999999999998 l0 0 c0.06 -0.06 0 -0.06 0 0 z M25.56 23.939999999999998 c-0.06 0.24 -0.3 -0.06 0 0 l0 0 z M26.7 23.939999999999998 l0.18 0 l0 0.24 l-0.18 0 l0 -0.24 z M22.38 24.060000000000002 c0.06 -0.24 0.06 0.3 0 0 l0 0 z M30 24.060000000000002 c0.24 -0.12 -0.18 0.24 0 0 l0 0 z M24.3 24.060000000000002 l0.12 0 l0 0.24 l-0.18 0 l0 -0.12 c0.06 0 0.06 -0.06 0.06 -0.12 z M28.08 24.18 l0 0 c0.06 0 0 -0.06 0 0 z M29.34 24.18 c0 -0.12 0.12 -0.06 0.18 -0.12 c-0.06 0.12 -0.12 0.06 -0.18 0.12 z M23.7 24.18 c0.06 0 0.06 0.12 0.12 0.12 c0 0.12 -0.18 0 -0.12 -0.12 z M24 24.18 c0.18 0 0.18 0.12 0.06 0.18 l-0.12 0 l0 -0.12 c0.06 0 0.06 -0.06 0.06 -0.06 z M29.16 24.299999999999997 l0 0 c0 0.06 -0.06 0 0 0 z M40.38 24.240000000000002 c0.24 0.12 -0.24 0.18 0 0 l0 0 z M23.04 24.36 l0 0 c-0.06 0.36 0.06 -0.3 0 0 z M20.58 24.36 c0.3 0 -0.12 0.36 0 0 l0 0 z M22.38 24.36 c0.3 0.3 -0.3 0.24 0 0 l0 0 z M23.28 24.36 l0.12 0 l-0.12 0 z M25.26 24.36 c0.18 -0.18 0.12 0.24 0 0 l0 0 z M39.6 24.36 l0 0 c0.06 0.06 -0.06 0 0 0 z M24.6 24.479999999999997 c-0.24 0 -0.18 0.36 -0.54 0.36 c0.06 -0.12 0.12 -0.24 0.12 -0.36 c0.12 0.18 0.24 -0.18 0.42 0 z M26.22 24.479999999999997 c0.06 -0.06 0.12 0 0.12 -0.12 c-0.06 0.06 -0.12 0 -0.12 0.12 z M25.08 24.6 l0 0 c0.06 0.06 0 0 0 0 z M10.86 56.94 l0 -0.06 c-0.06 0 0 0.06 0 0.06 c-0.06 1.02 -0.54 1.68 -0.66 2.34 c-0.18 1.08 -0.42 1.8 -0.66 2.58 c-0.42 1.38 -0.96 2.88 -1.26 4.2 c-0.18 0.6 -0.6 1.2 -0.84 1.8 c-0.24 0.9 -0.72 2.46 -0.84 3 c-0.12 0.9 -0.9 2.52 -1.02 3.36 c-0.12 0.06 -0.24 0 -0.24 0.12 c-0.24 0 -0.18 -0.18 -0.24 -0.3 c-0.3 0.36 -0.6 -0.24 -0.72 0 c-0.42 -0.12 -0.36 -0.66 -0.48 -0.96 c-0.24 0 -0.12 0.3 -0.24 0.36 c-0.3 -0.3 -0.12 -1.08 -0.42 -1.38 c0.6 -0.48 0.6 -1.62 1.14 -2.22 c0.48 -2.22 1.38 -3.72 1.68 -6.12 c1.44 -4.92 2.16 -10.38 2.28 -16.26 c0 -1.26 -0.06 -2.04 0.06 -2.94 c-0.36 -0.72 -0.18 -1.98 -0.48 -2.76 l0 -0.24 c-0.12 -0.06 -0.12 0.24 0 0.24 c-0.12 0.6 0.24 1.02 0.06 1.56 c-0.42 -1.74 -0.72 -3.66 -1.44 -5.28 c-0.96 -2.28 -2.58 -4.2 -5.4 -4.74 c-0.96 0.18 -1.62 -0.36 -2.46 -0.18 c-0.06 -0.12 -0.24 -0.12 -0.3 -0.18 c-1.2 0.3 -1.92 0.84 -3.12 1.26 c-0.18 0 -0.06 0.24 -0.18 0.3 s-0.06 -0.12 -0.24 -0.12 c-0.72 0.78 -2.4 1.32 -3.42 0.54 c-0.06 -0.42 0 -1.02 -0.3 -1.2 c-0.06 -0.54 0.06 -0.9 0.18 -1.38 c1.38 -0.84 3.3 -1.32 4.62 -2.34 c0.54 0.18 1.86 -0.6 2.04 0.24 c0.6 -0.12 1.02 -0.36 1.5 -0.54 c0 0.12 0 0.18 -0.06 0.24 c0.12 -0.06 0.78 -0.3 0.9 -0.42 c0.12 0 0.24 0.06 0.18 0.18 c0.18 -0.06 0.24 -0.24 0.3 -0.36 c0.36 0.12 0.18 0 0.54 -0.12 c0.06 0.18 -0.12 0.18 -0.06 0.3 c0.24 -0.12 0.66 -0.06 0.9 -0.3 c1.5 -0.24 2.46 -0.96 3.72 -0.9 c0.06 -0.06 0.12 -0.18 0.12 -0.36 c0.6 0.3 1.2 -0.36 1.68 -0.12 c-0.42 0.36 -0.72 0.18 -1.02 0.54 c0 0.3 0.48 -0.12 0.42 0.3 c-0.3 -0.06 -0.6 -0.06 -0.6 0.3 c-0.06 0 -0.06 -0.12 -0.12 -0.18 c-0.66 0.24 -1.26 0.24 -1.56 0.72 c-0.12 -0.06 -0.3 -0.06 -0.36 -0.18 c-0.06 0.06 -0.18 0.06 -0.12 0.3 c0.3 0.24 0.72 -0.06 0.96 -0.18 c0.12 0 0.06 0.12 0 0.18 l0.18 0 c0.24 -0.06 -0.06 -0.12 0 -0.24 c0.6 0.24 1.08 -0.12 1.68 -0.24 c0 -0.18 -0.3 0 -0.18 -0.3 c0.3 0.06 0.48 0.36 0.48 0.54 c0.3 0 0.36 -0.18 0.54 -0.18 c0 -0.24 -0.3 0.18 -0.36 -0.06 c0 -0.24 0.24 0 0.3 -0.3 c-0.12 -0.12 -0.3 0.06 -0.54 0 c0.06 -0.18 -0.18 -0.18 -0.12 -0.36 c0.06 -0.12 0.12 -0.36 0.36 -0.36 c0 0.06 -0.06 0.06 -0.06 0.12 c0.3 0.06 0 -0.24 0.18 -0.3 c0.24 0 0.24 0.12 0.06 0.24 c0.18 0.06 0.24 -0.06 0.18 -0.24 c0.12 0.18 0.24 0.24 0.48 0.18 c-0.18 0.36 -0.66 0.12 -1.02 0.54 c0.12 0.3 0.3 -0.06 0.54 0 c0 0.18 0.24 0.18 0.12 0.48 c0.18 0 0.18 -0.12 0.3 -0.12 c-0.18 -0.06 -0.06 -0.12 -0.12 -0.18 c0.24 -0.06 0.6 -0.18 0.96 -0.18 c0.06 0 0.18 -0.3 0.06 -0.36 c0.06 -0.18 0.3 -0.12 0.48 -0.18 c0.06 0.12 -0.06 0.12 -0.06 0.24 c0.54 -0.12 1.14 -0.06 1.68 -0.42 c0.18 0 0.12 0.3 0.24 0.3 c0.06 -0.18 0.24 -0.24 0.24 -0.42 c0.06 0.06 0.18 0.06 0.36 0.06 l0 0.24 c0.06 -0.24 0.06 -0.24 0.3 -0.12 c0.06 -0.18 -0.24 -0.12 -0.18 -0.42 c0.18 -0.06 0.24 0.18 0.24 -0.06 c0.18 0 0.06 0.36 0.18 0.42 c0.18 -0.18 0.12 -0.36 0.42 -0.3 c0.06 -0.18 -0.12 -0.18 -0.12 -0.36 c0.24 0.06 0.18 0.36 0.24 0.6 c0 -0.36 0.66 -0.66 0.78 -0.42 c0.3 -0.48 0.96 -0.06 1.2 -0.54 c0.18 0 0.12 0.24 0.36 0.24 c0.12 -0.06 0.06 -0.18 0.06 -0.3 c0.36 0 1.08 -0.06 1.5 -0.3 c0.12 0 0.12 0.3 0.3 0.3 c0 -0.06 -0.18 -0.3 0.06 -0.48 c0.06 -0.06 0.48 0.12 0.3 -0.12 c0.18 -0.3 0 0.36 0.36 0.24 c0 0.06 -0.06 0.06 -0.18 0.06 c-0.06 0.18 0.12 0.12 0.12 0.3 c0.12 -0.3 0.3 -0.36 0.18 -0.72 c0.3 -0.12 0.48 -0.66 0.42 -0.96 c0 -0.12 0 -0.12 0.12 -0.06 c0.06 -0.06 0.18 -0.36 0.06 -0.42 c0.66 0.12 1.92 -0.3 2.7 0.3 c0.12 0.18 0.06 0.54 0.18 0.72 c0.42 -0.12 1.02 0.06 1.14 -0.24 c0.36 0.18 0.84 -0.36 0.9 0.24 c0.36 0 0.66 -0.3 0.96 -0.06 c0.12 -0.18 -0.18 -0.78 -0.12 -0.84 c0.3 -0.06 0.3 0.54 0.54 0.18 c0 0 0.06 0.06 0.12 0.06 c0.18 0 0 -0.42 0.18 -0.48 c0.12 0.12 0.36 0.12 0.3 0.42 c0.12 0 0.24 0 0.36 -0.12 c-0.06 -0.24 -0.24 0.06 -0.3 0 c-0.06 -0.3 0.36 -0.12 0.36 -0.36 c0.24 0.06 0.06 0.12 0.06 0.36 c0.3 0.12 0 -0.42 0.3 -0.3 c-0.12 0.36 0.3 0.48 0.72 0.48 c0.06 0.12 -0.12 0.12 -0.06 0.3 c-1.38 0.24 -3 0.72 -4.2 0.6 c-0.18 0 0 0.36 -0.18 0.24 c0 -0.18 0 -0.3 -0.06 -0.36 c-0.3 0.06 -0.06 0.24 0 0.42 c-0.48 0 -0.84 0.12 -1.5 0.24 c0.06 0.54 -0.24 0.78 -0.48 1.02 c-0.54 1.44 -1.02 2.82 -1.68 4.02 c-0.24 1.08 -0.84 1.98 -0.9 2.88 c-0.66 0.84 -0.66 2.34 -1.38 3.06 c-0.06 0.12 0.06 0.12 0.06 0.3 c-0.42 1.62 -1.08 3.06 -1.62 4.32 l0 0.3 c-0.3 0.78 -0.24 1.92 -0.84 2.76 c0 0.06 0.06 0.06 0.12 0.06 c-0.24 0.24 -0.3 0.48 -0.24 0.84 c-0.36 0.9 -0.72 2.04 -0.96 3.24 c-0.06 0 -0.12 0 -0.18 -0.06 c-0.24 1.02 -0.6 2.34 -0.96 3.24 c0.12 0.42 -0.06 0.84 -0.36 1.02 c0.18 0.42 -0.24 0.42 -0.06 0.96 c-0.42 0.12 -0.12 0.96 -0.66 1.08 c0.18 0.48 -0.06 1.08 -0.36 1.38 z M25.62 25.020000000000003 c0 -0.06 0.12 -0.12 0.12 -0.18 c-0.12 -0.06 -0.3 0.18 -0.12 0.18 z M26.34 25.32 c0.3 -0.06 0.42 0.06 0.54 -0.24 c-0.18 0 -0.48 0 -0.54 0.24 z M23.76 25.68 c-0.24 -0.18 -0.18 0.24 0 0 l0 0 z M21.66 25.92 c0.18 0.3 0.12 -0.18 0 0 l0 0 z M17.94 26.64 c-0.06 0.12 -0.12 0.06 -0.18 0 c-0.12 0.3 0.42 0.12 0.18 0 z M16.98 26.939999999999998 c0.06 0.3 0.06 -0.3 0 0 l0 0 z M16.74 27 c0.12 0.24 0.18 -0.24 0 0 l0 0 z M15.9 27.060000000000002 c0 0.18 0.12 0.18 0.3 0.18 l0 -0.24 c-0.18 0 -0.18 0.12 -0.3 0.06 z M8.28 29.52 c-0.3 0 -0.54 0.06 -0.66 0.18 c0.3 0 0.48 -0.06 0.66 -0.18 c0.18 0.06 0.3 -0.18 0.42 0 c-2.76 1.14 -6 1.62 -8.58 2.82 c4.26 0.78 7.62 3.06 8.1 6.84 c0.3 -0.06 0.36 0.6 0.48 0.84 c-0.06 0.06 -0.24 0.06 -0.24 0.18 c0.24 0 0.18 0.36 0.24 0.48 c0 -0.12 0.06 -0.18 0.18 -0.18 c0.36 1.08 0.9 2.46 0.66 3.48 c-0.06 -0.06 -0.12 0.06 0 0 l0 0.24 c0.42 0.42 0.12 1.38 0.36 2.1 c-0.42 0.48 0.06 1.32 -0.48 1.86 c0.06 0.18 0.18 0.3 0.18 0.6 c-0.18 0 -0.12 -0.24 -0.18 -0.24 c-0.12 0.66 0 1.02 -0.06 1.74 c0.12 0.18 0.3 -0.3 0.36 -0.12 c0 0.36 0.12 0.48 0 0.78 c-0.36 -0.18 -0.12 0.06 -0.3 0.24 c0 -0.18 0 -0.54 -0.12 -0.3 c0.12 0.12 -0.36 0.78 0 0.84 c-0.06 -0.18 0.36 -0.24 0.36 -0.06 c-0.24 0.18 -0.72 0.96 -0.3 1.5 c-0.36 -0.06 -0.24 0.36 0 0.36 l0 -0.36 l0.06 0 c0 -0.54 0 -0.84 0.18 -1.08 c0.06 0.48 -0.06 0.84 0 1.08 c2.82 -8.82 5.28 -17.7 8.58 -25.98 c-0.3 -0.12 -0.42 0.06 -0.84 0.12 c-0.42 0.12 -0.9 0 -1.32 0.06 c-0.18 0.06 -0.36 0.36 -0.66 0.36 c-1.56 0.24 -3 0.78 -4.44 1.08 c-0.42 0.06 -0.6 0.06 -0.9 0.18 c-0.54 0.24 -1.32 0.24 -1.74 0.54 z M14.52 27.479999999999997 c0.06 0 0.12 0.06 0.24 0.06 l0 -0.24 c-0.12 0 -0.24 0.06 -0.24 0.18 z M14.4 27.54 c0.06 0.06 0 -0.06 0 0 l0 0 z M13.74 27.72 c0.12 0 0.3 0.06 0.3 -0.06 c-0.06 0 -0.06 -0.12 -0.12 -0.12 c0 0.12 -0.18 0.06 -0.18 0.18 z M11.28 28.32 c0.06 0.06 -0.06 0 0 0 l0 0 z M6.06 28.68 c0.18 0.06 0.48 -0.3 0.24 -0.36 c0.06 0.3 -0.18 0.24 -0.24 0.36 z M10.32 28.56 c0.06 0.06 -0.06 -0.06 0 0 l0 0 z M9.72 28.68 l0.24 0 c0 0 0 -0.12 -0.06 -0.12 c-0.06 0.12 -0.12 0.12 -0.18 0.12 z M10.14 28.62 l0 0 l0 0 z M5.88 28.68 c0 0.06 -0.06 0 0 0 l0 0 z M5.82 28.68 c-0.06 0.06 -0.12 0 -0.12 0.12 c0.06 -0.06 0.12 0 0.12 -0.12 z M5.4 28.86 c0.12 0.3 0.12 -0.24 0 0 l0 0 z M9.12 28.8 l-0.24 0 c-0.18 0.3 0.3 0.18 0.24 0 z M9.42 28.86 c0.06 0.3 0.06 -0.24 0 0 l0 0 z M8.58 28.98 c-0.18 0.24 0.18 -0.18 0 0 l0 0 z M4.56 29.16 c0 0 -0.06 -0.06 0 0 l0 0 z M7.14 29.4 c0.06 0 0 0 0 0 l0 0 z M3.78 29.7 c0.24 -0.06 0.18 0 0.36 0.12 c0 -0.18 0 -0.24 -0.12 -0.3 c0 0.18 -0.36 -0.06 -0.24 0.18 z M6.72 29.52 c-0.06 0 -0.18 0 -0.18 0.06 c0.06 0 0.18 0 0.18 -0.06 z M3.42 29.88 l-0.18 -0.18 c-0.12 0.18 0.18 0.36 0.18 0.18 c0.18 -0.06 0.18 0.06 0.24 0.06 c0 -0.12 0.06 -0.12 0.06 -0.24 c-0.06 -0.12 -0.24 0 -0.3 0.18 z M7.32 29.7 c0.12 0.24 0.18 -0.24 0 0 l0 0 z M5.88 29.82 c-0.12 0.24 0.24 -0.18 0 0 l0 0 z M5.82 30.24 c0.48 -0.12 1.02 -0.18 1.44 -0.42 c-0.66 0 -1.14 0.12 -1.44 0.42 z M2.58 30 c-0.24 0 -0.48 0.18 -0.36 0.3 c0 -0.18 0.42 0.06 0.42 -0.18 c-0.06 0 -0.06 -0.06 -0.06 -0.12 c0.12 0.06 0.12 0.18 0.36 0.12 c-0.06 -0.06 0 -0.06 0 -0.18 c-0.12 -0.06 -0.3 -0.12 -0.36 0.06 z M3.12 29.88 c-0.06 0 -0.12 0 -0.12 0.06 c0.06 0 0.12 0 0.12 -0.06 z M4.44 30.24 c0.06 0.06 0 0 0 0 l0 0 z M-1.2 30.3 c-0.48 0.06 0.36 0 0 0 l0 0 z M5.46 30.3 c0.12 0.24 0.18 -0.18 0 0 l0 0 z M1.5 30.48 l0 0 l0 0 z M5.1 30.48 c0 -0.12 -0.06 -0.12 -0.06 0 c0.06 0 0.06 0.06 0.06 0 z M4.56 30.6 c0.12 0 0.36 0.06 0.24 -0.12 l-0.24 0 l0 0.12 z M7.32 39.6 c-0.06 0.42 0.06 -0.24 0 0 l0 0 z M7.32 39.96 c0.06 0 0.06 0.06 0.12 0.06 c0 -0.06 0 -0.24 -0.12 -0.18 l0 0.12 z M7.44 40.2 l0.18 0 l0 -0.06 l-0.18 0 l0 0.06 z M14.34 40.68 c0.06 0.06 -0.06 0 0 0 l0 0 z M14.34 40.92 c-0.06 0 -0.12 0 -0.12 0.06 c0 0 0.12 0 0.12 -0.06 z M13.98 41.16 c0.06 0.06 -0.06 -0.06 0 0 l0 0 z M9.12 56.1 c0.18 0.24 0.06 0.54 0 0.78 c-0.18 0 -0.36 0 -0.18 0.18 c-0.12 0.06 0.18 0 0.3 0.18 c0.12 -0.48 0.42 -0.9 0.36 -1.44 c0.54 -0.66 0.54 -1.98 0.96 -2.64 c0.42 -1.56 1.02 -3.66 1.74 -5.4 c0 -0.66 0.3 -1.62 0.66 -2.22 c0 -0.18 0 -0.3 -0.06 -0.3 c0.42 -1.2 0.96 -2.7 1.02 -4.02 c-1.62 4.5 -3.18 10.32 -4.8 14.88 z M7.74 41.34 c0.06 0.06 0 0 0 0 l0 0 z M9 41.58 c0.06 0.24 0.06 -0.3 0 0 l0 0 z M15.24 41.760000000000005 c0.06 0.24 0.06 -0.24 0 0 l0 0 z M9.06 41.879999999999995 c0 -0.06 -0.12 -0.06 -0.12 0 c0.06 0 0.12 0.12 0.12 0 z M9.06 42.120000000000005 c-0.06 0.36 0.06 -0.3 0 0 l0 0 z M14.94 42.78 c-0.12 0.36 0.24 0 0 0 l0 0 z M8.76 43.8 c-0.06 -0.24 0.06 -0.72 -0.12 -0.84 c-0.18 0.3 0 0.72 0.12 0.84 z M14.52 44.16 c0.18 0.12 0.18 -0.36 0.06 -0.36 c-0.06 0.06 -0.12 0.18 -0.06 0.36 z M8.76 44.46 c0.06 0 0 -0.06 0 0 l0 0 z M14.28 45.24 c-0.06 -0.18 0.18 -0.42 0.06 -0.6 c0 0.24 -0.3 0.48 -0.06 0.6 z M8.76 44.88 c0.06 0.06 0 0 0 0 l0 0 z M8.94 45.78 c0.06 -0.24 0 -0.54 -0.18 -0.6 c0.12 0.24 -0.18 0.54 0.18 0.6 z M14.04 45.9 c0 -0.06 0 -0.18 0.18 -0.12 c-0.06 -0.12 0.06 -0.42 -0.12 -0.36 c0.06 0.12 -0.24 0.3 -0.06 0.48 z M9.6 46.26 c-0.06 -0.24 0.06 -0.3 0.12 -0.48 c-0.06 -0.06 -0.12 -0.12 -0.3 -0.12 c0.18 0.3 -0.18 0.48 0.18 0.6 z M8.94 47.64 c-0.12 -0.48 0 -1.14 -0.18 -1.68 c0 0.36 -0.18 1.38 0.18 1.68 z M13.98 45.96 c-0.12 0.06 0 0.12 0 0 c0.12 0 0 0 0 0 z M14.22 45.96 c0 0.06 -0.06 0 0 0 l0 0 z M13.86 46.32 c0.06 0.3 0.06 -0.24 0 0 l0 0 z M13.74 47.16 c0 -0.18 0.18 -0.48 0 -0.6 c-0.06 0.12 -0.12 0.48 0 0.6 z M9.42 46.68 c0.06 0 0 0 0 0 l0 0 z M13.32 48.3 c0.12 -0.24 0.42 -0.72 0.24 -1.02 c-0.12 0.3 -0.42 0.78 -0.24 1.02 z M13.08 47.64 c0.06 0.06 0 0 0 0 l0 0 z M8.88 49.86 c-0.12 -0.72 0.24 -1.68 -0.18 -2.04 c0.06 0.9 -0.18 1.68 0.18 2.04 z M13.32 48.42 c-0.06 0 -0.12 0 -0.12 0.06 c0 0 0.12 0 0.12 -0.06 z M12.3 51.66 c0.48 -0.42 0.18 -1.86 0.78 -2.1 c-0.18 -0.42 0.24 -0.78 0 -1.02 c-0.24 1.02 -0.72 2.04 -0.78 3.12 z M12.3 49.56 c-0.06 0 -0.18 0 -0.18 0.06 c0.06 0 0.18 0 0.18 -0.06 z M8.7 53.16 c-0.12 -0.84 0.3 -2.46 0 -3.24 c0.06 1.08 -0.54 2.28 0 3.24 z M12 52.62 c0.12 -0.06 0.3 -0.66 0.06 -0.66 c0.12 0.36 -0.3 0.48 -0.06 0.66 z M11.88 53.1 c0 -0.06 0.18 -0.3 0 -0.3 c-0.06 0.06 -0.18 0.24 0 0.3 z M10.98 53.16 c0.18 0.06 0.3 -0.18 0.12 -0.24 c0 0.12 -0.06 0.18 -0.12 0.24 z M8.1 55.26 c0.12 1.44 -0.54 2.34 -0.3 3.66 c0.24 -0.72 0.3 -1.68 0.3 -2.52 c0.3 -1.02 0.6 -2.28 0.36 -3.12 c-0.18 0.66 -0.06 1.44 -0.36 1.98 z M11.46 54.12 c0.24 -0.06 0.3 -0.72 0.24 -0.9 c-0.06 0.36 -0.24 0.54 -0.24 0.9 z M9.3 53.64 c0.06 0.24 0.06 -0.24 0 0 l0 0 z M9.12 53.94 c-0.12 0.18 -0.24 0.6 -0.12 0.66 c0.24 0 0.42 -0.42 0.3 -0.72 c0 0.18 -0.24 -0.18 -0.24 0 c0.06 0 0.12 0 0.06 0.06 z M11.28 54.84 c0.18 0 0.24 -0.48 0.12 -0.54 c-0.06 0.18 -0.18 0.3 -0.12 0.54 z M10.68 54.6 c-0.06 0.06 -0.12 0 -0.12 0.12 c0 -0.06 0.12 0 0.12 -0.12 z M9 54.9 c-0.06 0.6 0.18 -0.18 0 0 l0 0 z M10.92 55.8 c0.24 0 0.42 -0.72 0.18 -0.72 c-0.12 0.24 -0.06 0.42 -0.18 0.72 z M10.62 56.82 c0.18 0 0.24 -0.36 0.12 -0.42 c-0.06 0.12 -0.06 0.3 -0.12 0.42 z M10.38 57.48 c0.24 0.12 0.18 -0.3 0.06 -0.3 c0.06 0.18 -0.12 0.18 -0.06 0.3 z M9.06 57.48 c-0.12 0.06 0 0.06 0 0 c0.3 0 0 -0.06 0.18 -0.18 c-0.18 0 -0.18 0.12 -0.18 0.18 z M9.78 57.48 l-0.12 0 c0.06 0 0.12 0.12 0.12 0 z M10.32 58.08 c-0.06 -0.18 0.18 -0.3 0 -0.36 c0.06 0.12 -0.18 0.3 0 0.36 z M10.14 58.44 c-0.06 0.42 0 -0.24 0 0 l0 0 z M7.26 61.2 c0.06 -0.66 0.72 -1.62 0.36 -2.1 c-0.12 0.78 -0.54 1.38 -0.36 2.1 z M9.9 59.46 c0 -0.06 0.18 -0.36 -0.12 -0.3 c0.06 0.12 0 0.24 0.12 0.3 z M9.42 60.6 c0 -0.18 0.3 -0.3 0.12 -0.48 c-0.06 0.12 -0.24 0.36 -0.12 0.48 z M9.36 60.78 c0.06 0.06 -0.06 -0.06 0 0 l0 0 z M9.36 61.2 c0 -0.12 0 -0.18 -0.12 -0.24 c-0.06 0.12 0 0.24 0.12 0.24 z M9.3 61.8 c0.06 -0.12 0 -0.48 -0.24 -0.54 c0.06 0.18 0 0.54 0.24 0.54 z M8.58 62.94 c0.12 0.3 -0.24 0.54 -0.12 0.66 c0.24 -0.36 0.78 -1.2 0.54 -1.68 c-0.18 0.3 -0.18 1.14 -0.42 1.02 z M8.22 64.5 c0.18 -0.06 0.24 -0.54 0.12 -0.66 c0 0.24 -0.12 0.36 -0.12 0.66 z M7.92 65.82 c0.06 0.3 0.06 -0.3 0 0 l0 0 z M5.76 67.14 c0.06 0.3 0.06 -0.3 0 0 l0 0 z M21.6 24.659999999999997 c0 -0.06 0.06 -0.06 0.06 -0.06 c0 0.06 0 0.06 -0.06 0.06 z M23.76 24.659999999999997 l0 0 c0.06 0.06 0 0 0 0 z M21.3 24.72 c0 -0.06 0.06 -0.06 0.12 -0.06 c0 0.06 -0.06 0.06 -0.12 0.06 z M18.6 24.840000000000003 c0.18 -0.18 -0.18 0.24 0 0 l0 0 z M23.88 24.9 c0 -0.06 0.06 -0.06 0.12 -0.06 c0 0.06 -0.06 0.06 -0.12 0.06 z M25.26 25.020000000000003 c-0.12 0 -0.18 -0.06 -0.18 -0.18 c0.12 -0.06 0.18 0.06 0.18 0.18 z M17.7 24.9 c0.06 0 0.06 0.06 0.18 0.06 l0 0.12 c-0.18 0 -0.42 0.06 -0.6 0.06 c-0.06 -0.24 0.36 -0.06 0.42 -0.24 z M24.3 25.020000000000003 l0 0 c0.06 0.06 -0.06 0 0 0 z M31.5 25.08 l0 0 s-0.06 0 0 0 z M23.7 25.14 c-0.06 0.06 -0.06 0.12 -0.06 0.18 c-0.18 -0.24 -0.48 0.36 -0.48 -0.12 c0.24 -0.06 0.24 -0.12 0.54 -0.06 z M31.02 25.08 c0 0.18 -0.6 0.42 -0.54 0.06 c0.12 -0.06 0.42 -0.06 0.54 -0.06 z M31.14 25.14 c0 -0.06 0.12 0 0.12 -0.06 c-0.06 0 -0.12 0 -0.12 0.06 z M18.78 25.200000000000003 c-0.06 0.24 -0.18 0.24 -0.36 0.06 c0 -0.18 0.3 -0.18 0.36 -0.06 z M23.82 25.200000000000003 l0 0 c0.06 -0.06 0 -0.12 0 0 z M24.6 25.14 c0.12 0 0.06 0.18 0.06 0.24 c-0.12 0 -0.12 -0.18 -0.06 -0.24 z M16.62 25.200000000000003 c0.12 -0.06 0.12 0.06 0.12 0.12 c-0.06 0 -0.06 0.06 -0.06 0.06 c-0.06 0 -0.06 -0.12 -0.06 -0.18 z M23.82 25.200000000000003 l0 0 c-0.06 0.06 0 0.06 0 0 z M15.78 25.259999999999998 c0.12 0 0.06 0.18 0.12 0.3 c-0.3 -0.06 -0.36 0.18 -0.66 0.12 c-0.06 -0.48 0.48 0 0.54 -0.42 z M16.26 25.259999999999998 l0.12 0 l0 0.12 l-0.12 0 l0 -0.12 z M17.7 25.799999999999997 c0.06 -0.3 -0.24 -0.24 -0.06 -0.54 c0.24 0.18 0.12 0 0.42 0 c0.06 0.24 -0.06 0.24 0 0.48 c-0.24 -0.06 -0.18 0 -0.36 0.06 z M17.76 25.619999999999997 l0.18 0 l0 -0.12 l-0.18 0 l0 0.12 z M22.56 25.32 c0 -0.06 0.06 -0.06 0.12 -0.06 c0 0.06 -0.06 0.06 -0.12 0.06 z M41.46 25.32 c0.06 -0.24 0.06 0.3 0 0 l0 0 z M17.4 25.619999999999997 c-0.06 0 -0.06 -0.06 -0.06 -0.12 c-0.06 0 0 0.18 -0.24 0.12 c-0.12 -0.36 0.66 -0.24 0.3 0 z M22.38 25.380000000000003 l0.18 0 l0 0.18 l-0.18 0 l0 -0.18 z M24.3 25.5 c0 -0.12 0.12 -0.12 0.12 0 c0 0.06 -0.06 0 -0.12 0 z M16.86 25.560000000000002 c0.06 -0.3 0.06 0.24 0 0 l0 0 z M16.44 25.560000000000002 c0.18 0.06 -0.06 0.24 -0.18 0.18 c-0.12 -0.24 0.24 0 0.18 -0.18 z M16.62 25.619999999999997 c0.06 -0.3 0.06 0.24 0 0 l0 0 z M22.26 25.619999999999997 l0 0 c0.06 0.06 -0.06 0 0 0 z M14.94 25.68 c0 0.12 -0.36 0.12 -0.24 -0.06 l0.18 0 c0 0.06 0 0.06 0.06 0.06 z M14.94 25.68 c0.12 -0.18 0.36 0.12 0 0 l0 0 z M14.58 25.740000000000002 c0 0.12 -0.24 0.12 -0.3 0.06 c0.12 -0.12 0.18 -0.06 0.3 -0.06 z M15.9 25.740000000000002 l0 0 l0 0 z M14.1 25.740000000000002 c0.3 0.18 -0.18 0.18 0 0 l0 0 z M15.66 25.740000000000002 c0.06 0.3 -0.36 0.06 -0.42 0.24 c-0.12 -0.12 0.18 -0.24 0.42 -0.24 z M17.28 25.799999999999997 c0.18 -0.12 -0.18 0.24 0 0 l0 0 z M13.98 25.799999999999997 c-0.24 0.18 -0.6 0.24 -0.9 0.42 l0 -0.36 c0.48 -0.06 0.66 0 0.9 -0.06 z M16.98 26.04 c-0.24 0.12 -0.06 -0.18 -0.3 -0.12 c0 -0.18 0.36 -0.12 0.3 0.12 z M17.7 25.799999999999997 l0 0 c-0.12 0 0 0.06 0 0 z M14.58 25.86 c0.06 0 0.18 0.12 0.3 0.12 c-0.06 0.18 -0.42 0.12 -0.3 -0.12 z M38.58 25.92 c0.12 0 0.12 -0.06 0.3 -0.06 c0 0.18 -0.3 0.12 -0.3 0.3 c-0.12 -0.06 -0.12 -0.12 -0.24 -0.18 c0 -0.06 0.24 -0.18 0.24 -0.06 z M17.94 25.979999999999997 l0 0 c0.06 0.06 -0.06 0 0 0 z M37.2 26.340000000000003 c0.18 -0.3 0.6 -0.24 0.78 -0.3 c0 0.3 -0.48 0.06 -0.42 0.36 c-0.12 0.06 -0.3 0.06 -0.36 -0.06 z M38.04 25.979999999999997 l0.18 0 l0 0.18 l-0.18 0 l0 -0.18 z M12.54 26.159999999999997 l0 0 s-0.06 -0.06 0 0 z M16.02 26.159999999999997 c0.12 -0.24 0.18 0.24 0 0 l0 0 z M16.32 26.04 c0.18 0.06 0.3 0.42 0 0.36 c-0.12 -0.12 0.06 -0.12 0 -0.36 z M16.62 26.22 l0 0 c0.06 0.06 0 -0.06 0 0 z M12.12 26.28 l0 0 c-0.06 0.36 0.06 -0.3 0 0 z M15.6 26.28 l0 0 c0.06 0.06 -0.06 0 0 0 z M11.64 26.4 c0.06 -0.24 0.06 0.24 0 0 l0 0 z M13.08 26.4 l0 0 c0.06 0.06 0 0 0 0 z M15.72 26.340000000000003 c0.12 0.18 -0.3 0.18 -0.06 0.18 c0 0.06 -0.06 0.06 -0.06 0.06 l-0.18 0 l0 -0.18 c0.06 -0.06 0.18 -0.06 0.3 -0.06 z M17.1 26.340000000000003 c0.24 -0.12 0.24 0.3 0 0.18 l0 -0.18 z M37.2 26.340000000000003 c-0.12 0.18 -0.18 0.12 -0.48 0.18 c0 -0.24 0.24 -0.18 0.48 -0.18 z M12.96 26.520000000000003 c0.06 -0.3 0.06 0.18 0 0 l0 0 z M12.6 26.520000000000003 l0.12 0 l-0.12 0 z M14.1 26.520000000000003 l0 0 c0.06 0.06 0 0 0 0 z M15.06 26.520000000000003 c0 0 0.12 -0.06 0.18 0 c0.06 0 -0.24 0.12 -0.18 0 z M16.38 26.520000000000003 c0.12 0.06 0.18 0 0.3 0 c0.06 0.12 -0.18 0.06 -0.3 0.12 l0 -0.12 z M36.18 26.58 c0 -0.06 0.06 -0.12 0.18 -0.06 c0 0 -0.06 0.06 -0.18 0.06 z M36.48 26.520000000000003 l0 0 c0 0.06 -0.06 0 0 0 z M36 26.58 c0.06 -0.24 0.06 0.3 0 0 l0 0 z M13.68 26.58 l0.06 0 l0 0.12 l-0.06 0 l0 -0.12 z M14.4 26.64 c0.06 -0.24 0.06 0.3 0 0 l0 0 z M15.72 26.64 c0.12 -0.24 0.12 0.3 0 0 l0 0 z M16.2 26.64 l0 0 c0 0.06 -0.06 0 0 0 z M35.7 26.64 c0 -0.06 0.12 -0.06 0.18 -0.06 c0 0.06 -0.12 0.06 -0.18 0.06 z M36.18 26.58 l0 0 c-0.12 0.06 0 0.06 0 0 z M11.64 26.64 c0.12 0 0.24 0 0.24 0.18 l-0.24 0 l0 -0.18 z M14.28 26.64 c-0.06 0.18 -0.24 0.24 -0.54 0.24 c0.12 -0.18 0.36 -0.18 0.54 -0.24 z M35.46 26.700000000000003 l0 0 c0 0.06 -0.06 0 0 0 z M10.08 26.700000000000003 l0.12 0 l0 0.18 l-0.12 0 l0 -0.18 z M11.4 26.700000000000003 c0.06 0.24 -1.02 0.66 -1.08 0.3 c0.54 -0.06 0.72 -0.12 1.08 -0.3 z M35.04 26.700000000000003 l0.18 0 c0 0.18 -0.12 0.18 -0.24 0.18 c0 -0.06 0.06 -0.06 0.06 -0.18 z M44.76 26.939999999999998 c0.06 0 0.06 0 0.06 -0.06 c0.54 0 0.6 -0.24 1.08 -0.06 c-0.12 0.42 -0.72 0 -0.78 0.42 c-0.18 -0.18 -0.3 -0.12 -0.36 -0.3 z M13.44 26.880000000000003 c0.18 -0.3 0.12 0.24 0 0 l0 0 z M9.72 26.939999999999998 l0 0 c0.12 -0.06 0 -0.06 0 0 z M34.38 26.939999999999998 l0 0 c0.06 0.06 0 0 0 0 z M9.72 26.939999999999998 c0 0.12 -0.12 0.12 -0.06 0.3 c0.3 0 0.42 -0.24 0.6 -0.06 c-0.12 0.12 -0.54 0.12 -0.84 0.3 c-0.12 -0.18 0.3 -0.24 0 -0.3 c0 -0.18 0.12 -0.24 0.3 -0.24 z M12.3 26.939999999999998 c-0.06 0.12 -0.12 0.12 -0.24 0.12 c0.06 -0.06 0.12 -0.12 0.24 -0.12 z M12.36 26.939999999999998 c0.12 0.06 0.18 0.12 0.18 0.24 c-0.12 -0.06 -0.18 -0.12 -0.18 -0.24 z M13.86 27 c0.18 -0.12 0.18 0.3 0 0.24 l0 -0.24 z M11.04 27.18 c0.12 0.06 0.18 0.18 0.24 0.36 c-0.12 0 -0.12 0 -0.18 0.06 c-0.12 -0.18 -0.12 -0.3 -0.06 -0.42 z M12 27.240000000000002 c-0.12 0.12 -0.3 0.12 -0.42 0.24 c0 -0.18 0.12 -0.24 0.42 -0.24 z M13.32 27.240000000000002 c0.06 0 0.12 0 0.12 0.12 c-0.12 0.06 -0.12 -0.06 -0.12 -0.12 z M9.06 27.240000000000002 c0.12 0.06 0.3 0.06 0.24 0.3 l-0.24 0 l0 -0.3 z M12.9 27.299999999999997 l0 0 c0 0.06 -0.06 0 0 0 z M8.46 28.14 c0.06 -0.12 0.12 -0.18 0.12 -0.24 c-0.06 -0.12 -0.18 -0.12 -0.24 -0.18 c-0.12 0 -0.12 0.24 0 0.24 c-0.06 0.18 -0.36 -0.54 -0.42 -0.06 c-0.3 -0.18 0.06 -0.24 0.06 -0.36 c0.18 0.24 0.48 0.06 0.48 -0.24 c0.24 0.18 0.3 0.66 0 0.84 z M8.7 27.479999999999997 c0.06 -0.24 0.12 0.24 0 0 l0 0 z M11.76 27.54 c0.06 -0.12 0.18 -0.06 0.18 0 c-0.06 0.12 -0.06 0 -0.18 0 z M12.06 27.54 l0 0 c0.06 0.06 0 -0.06 0 0 z M10.68 27.54 c-0.06 0.18 -0.12 0.3 -0.3 0.36 c-0.06 -0.06 -0.06 -0.18 -0.06 -0.3 c0.18 0.06 0.18 -0.12 0.36 -0.06 z M10.14 27.659999999999997 c0.06 0.06 0.12 0.12 0.12 0.3 c-0.12 -0.06 -0.24 -0.18 -0.12 -0.3 z M9.9 27.840000000000003 c0.06 -0.24 0.18 0.18 0 0 l0 0 z M8.7 27.9 c0.18 -0.18 0.24 0.24 0.54 0.06 c-0.12 0.12 -0.3 0.18 -0.54 0.18 c0 -0.18 0.24 -0.18 0 -0.24 z M15.42 27.9 c0 0.06 -0.24 0 -0.24 0.12 c-0.18 -0.06 0.06 -0.18 0.24 -0.12 z M10.62 27.96 c-0.06 0.18 -0.18 0.18 -0.3 0.06 c0 -0.06 0.18 -0.06 0.3 -0.06 z M9.96 28.14 l0 0 c0.06 0 -0.06 -0.06 0 0 z M9.12 28.26 l0 0 c0 -0.12 -0.06 0 0 0 z M14.04 28.2 c0 0.12 -0.18 0 -0.18 0.12 c-0.18 -0.06 0.06 -0.18 0.18 -0.12 z M4.26 28.26 c0.06 0 0.12 0.06 0.12 0.06 c0.06 0.18 -0.24 0.12 -0.12 -0.06 z M9.12 28.26 c0.24 0 -0.06 0.3 0 0 l0 0 z M13.62 28.32 l0 0 c0.06 0.06 -0.06 0 0 0 z M13.38 28.32 c-0.06 0.12 -0.12 0.12 -0.3 0.18 c-0.06 -0.24 0.18 -0.12 0.3 -0.18 z M12.66 28.56 c0 -0.06 0.06 -0.06 0.12 -0.06 c0 0.06 -0.06 0.06 -0.12 0.06 z M3.42 28.62 c0 -0.06 0.12 -0.06 0.18 -0.06 c-0.06 0.06 -0.12 0.06 -0.18 0.06 z M7.98 28.68 c0 -0.06 0.06 -0.06 0.06 -0.12 l0.18 0 l0 0.24 c-0.12 -0.06 -0.18 -0.12 -0.24 -0.12 z M12.3 28.68 c0 -0.06 0.06 -0.06 0.12 -0.06 c0 0.06 -0.12 0.06 -0.12 0.06 z M11.64 28.68 c0.24 0.24 -0.3 0.18 0 0 l0 0 z M2.34 28.92 l0 0 c0.06 0.06 -0.06 0 0 0 z M11.22 28.92 c0 -0.06 0.12 -0.06 0.18 -0.06 c0 0.06 -0.12 0.06 -0.18 0.06 z M2.16 29.22 c-0.12 -0.06 -0.42 0.06 -0.36 -0.18 c0.12 0.06 0.18 0.12 0.18 -0.06 c0.12 0 0.24 0.06 0.18 0.24 z M6.06 29.04 l0 0 c0.06 0.06 0 0 0 0 z M6.6 28.98 c0.12 0.06 0 0.12 0 0.24 c-0.06 -0.06 0 -0.12 0 -0.24 z M10.56 29.04 c-0.54 0.3 -1.14 0.42 -1.86 0.48 c0.54 -0.24 1.26 -0.3 1.86 -0.48 z M1.56 29.22 l0 0 c0.06 -0.06 -0.06 -0.12 0 0 z M6.12 29.16 c0.24 -0.06 0.18 0.06 0.36 0.06 c0 0.06 -0.3 0.18 -0.36 0.06 l0 -0.12 z M1.56 29.22 c0.06 0.24 -0.3 -0.06 0 0 l0 0 z M5.82 29.4 c0.18 -0.12 -0.18 0.18 0 0 l0 0 z M-3.3 33.78 l0 0 c0.06 0 -0.06 -0.06 0 0 z M-3.6 33.9 c-0.06 0.12 -0.12 0.12 -0.24 0.12 c0 -0.12 0.12 -0.12 0.24 -0.12 z M8.58 39.239999999999995 l0 0 c0 0.06 -0.06 0 0 0 z M7.98 43.68 l0 0 c0.06 0.06 0 0 0 0 z M7.98 43.8 c0.3 0.12 0.06 0.78 0.12 1.2 c-0.12 -0.36 -0.24 -0.9 -0.12 -1.2 z M8.04 45.3 c0.18 -0.12 0 0.6 0 0 l0 0 z M8.04 46.08 l0 0 c0.06 0 0 -0.06 0 0 z M8.1 46.68 l0 0 c0.06 0 0 0 0 0 z M9.54 48.84 c0.12 0.18 0.42 0.96 -0.12 0.9 c0.3 -0.24 -0.06 -0.54 0.12 -0.9 z">
		</path>
	</g>
	<g id="SvgjsG8200" featurekey="nameFeature-0" transform="matrix(0.8149960871830921,0,0,0.8149960871830921,30.50539968173666,0.20945354671533423)" fill="#ffffff">
		<path d="M8.76 13.84 c0.04 -0.12 0.12 -0.24 0.28 -0.24 l4.96 0 c0.16 0 0.24 0.12 0.28 0.24 l6.92 25.72 c0.04 0.24 -0.12 0.44 -0.36 0.44 l-4.56 0 c-0.12 0 -0.24 -0.08 -0.28 -0.24 l-1.56 -5.6 l-5.84 0 l-1.52 5.6 c-0.04 0.16 -0.12 0.24 -0.28 0.24 l-4.6 0 c-0.24 0 -0.4 -0.2 -0.36 -0.44 z M9.88 29.2 l3.32 0 l-1.72 -6.04 z M16.04 31.560000000000002 l1.84 6 c0.08 0.24 0.52 0.2 0.4 -0.12 l-6.4 -21.28 c-0.12 -0.52 -0.8 -0.56 -0.92 0 l-6.2 21.28 c-0.12 0.28 0.32 0.4 0.44 0.16 l1.76 -6.04 l9.08 0 z M7.08 31.04 l4.36 -14.72 l4.44 14.72 l-8.8 0 z M40.294 23.8 c3.04 1.44 7 3.72 7 7.84 c0 1.2 -0.2 3.52 -1.52 5.48 c-1.48 2.2 -3.8 3.28 -7 3.28 c-3.4 0 -7.36 -1.64 -8.6 -5.36 c-0.04 -0.12 0 -0.24 0.12 -0.32 l3.68 -3.16 c0.16 -0.12 0.4 -0.12 0.52 0.08 c0.08 0.2 0.24 0.52 0.44 0.92 c0.6 1.24 2.04 2.48 3.64 2.48 c1.24 0 2.92 -0.68 2.92 -2.6 c0 -1.84 -2.52 -2.88 -4.08 -3.48 c-1.8 -0.72 -3.64 -1.64 -5.2 -3 c-1.64 -1.52 -2.44 -3.2 -2.44 -5.2 c0 -5 4.6 -7.52 8.96 -7.52 c3.44 0 6 1.8 7.68 5.36 c0.08 0.16 0 0.36 -0.12 0.44 l-3.56 2.48 c-0.16 0.08 -0.24 0.08 -0.4 -0.12 c-1.36 -1.96 -2.56 -2.88 -4.16 -2.88 c-0.84 0 -2.8 0.32 -2.8 1.8 c0 1.8 3.32 2.72 4.92 3.48 z M33.013999999999996 34.84 c1 2 3.76 3.16 6 3.16 c2.92 0 5.28 -2 5.6 -5.04 c0.4 -3.72 -2.52 -5.32 -5.4 -6.76 l-1.28 -0.56 c-2.96 -1.32 -5.12 -2.32 -5.12 -5.08 c0 -3.04 2.8 -4.44 5.56 -4.44 c2.52 0 3.84 1.48 4.52 2.4 c0.24 0.32 0.64 0.04 0.4 -0.28 c-0.68 -0.84 -2.12 -2.6 -4.92 -2.6 c-3.16 0 -6.04 1.56 -6.04 4.92 c0 3 2.4 4.16 5.44 5.56 l1.24 0.6 c3.96 1.88 5.4 3.64 5.08 6.2 c-0.6 4.08 -3.72 4.6 -5.08 4.6 c-3 0 -5 -1.8 -5.6 -2.92 c-0.2 -0.2 -0.48 0 -0.4 0.24 z M74.588 13.600000000000001 c0.28 0 0.44 0.32 0.28 0.56 l-6.28 8.68 l6.64 16.72 c0.08 0.2 -0.04 0.44 -0.32 0.44 l-5.4 0 c-0.12 0 -0.24 -0.08 -0.28 -0.24 l-4.16 -11.96 l-2.04 2.8 l0 9.04 c0 0.2 -0.16 0.36 -0.36 0.36 l-4.56 0 c-0.2 0 -0.32 -0.16 -0.32 -0.36 l0 -25.68 c0 -0.2 0.12 -0.36 0.32 -0.36 l4.56 0 c0.2 0 0.36 0.16 0.36 0.36 l0 8.28 l6.28 -8.48 c0.12 -0.16 0.16 -0.16 0.32 -0.16 l4.96 0 z M60.188 16 l0 21.56 c0 0.28 0.44 0.28 0.44 0 l0 -7.76 l5 -6.64 l5.6 14.48 c0.08 0.2 0.56 0.08 0.44 -0.24 l-5.68 -14.76 l5.2 -6.92 c0.2 -0.2 -0.16 -0.56 -0.4 -0.32 l-10.16 13.6 l0 -13 c0 -0.28 -0.44 -0.28 -0.44 0 z M109.096 18.6 l-5.68 0 c-0.2 0 -0.36 -0.16 -0.36 -0.36 l0 -4.28 c0 -0.2 0.16 -0.36 0.36 -0.36 l16.68 0 c0.2 0 0.36 0.16 0.36 0.36 l0 4.28 c0 0.2 -0.16 0.36 -0.36 0.36 l-5.68 0 l0 21.04 c0 0.2 -0.16 0.36 -0.36 0.36 l-4.6 0 c-0.2 0 -0.36 -0.16 -0.36 -0.36 l0 -21.04 z M117.656 15.8 l-12.08 0 c-0.28 0 -0.28 0.52 0 0.52 l5.92 0 l0 21.2 c0 0.28 0.52 0.28 0.52 0 l0 -21.2 l5.64 0 c0.4 0 0.36 -0.52 0 -0.52 z M145.55 29.560000000000002 c-0.56 1.16 -1.36 2.04 -2.48 2.56 l3.36 7.4 c0.12 0.24 -0.04 0.48 -0.28 0.48 l-4.92 0 c-0.16 0 -0.24 -0.08 -0.28 -0.2 l-3.12 -6.8 l-2.04 0 l0 6.64 c0 0.2 -0.16 0.36 -0.36 0.36 l-4.6 0 c-0.16 0 -0.28 -0.16 -0.28 -0.36 l0 -25.68 c0 -0.2 0.12 -0.36 0.28 -0.36 l8.32 0 c4.44 0 7.12 2.52 7.12 7.2 l0 5.04 c0 1.4 -0.24 2.72 -0.72 3.72 z M141.03 24.6 l0 -2.6 c0 -2.8 -1.04 -3.08 -4.08 -3.08 l-1.16 0 l0 8.84 l1.16 0 c2.52 0 4 -0.04 4.08 -3.16 z M133.47 37.56 l0 -6.84 l5.76 0 l3.36 6.92 c0.08 0.2 0.56 0.12 0.44 -0.24 l-3.36 -6.8 c3.12 -0.44 4.2 -2.08 4.2 -5.04 l0 -5 c0 -4.4 -4 -4.76 -5.24 -4.76 l-5.4 0 c-0.08 0 -0.24 0.12 -0.24 0.24 l0 21.52 c0 0.28 0.48 0.28 0.48 0 z M143.39000000000001 20.56 l0 5 c0 4.08 -2.6 4.64 -5.12 4.64 l-4.8 0 l0 -13.88 l5.16 0 c4.32 0 4.76 2.92 4.76 4.24 z M162.844 13.84 c0.04 -0.12 0.12 -0.24 0.28 -0.24 l4.96 0 c0.16 0 0.24 0.12 0.28 0.24 l6.92 25.72 c0.04 0.24 -0.12 0.44 -0.36 0.44 l-4.56 0 c-0.12 0 -0.24 -0.08 -0.28 -0.24 l-1.56 -5.6 l-5.84 0 l-1.52 5.6 c-0.04 0.16 -0.12 0.24 -0.28 0.24 l-4.6 0 c-0.24 0 -0.4 -0.2 -0.36 -0.44 z M163.964 29.2 l3.32 0 l-1.72 -6.04 z M170.124 31.560000000000002 l1.84 6 c0.08 0.24 0.52 0.2 0.4 -0.12 l-6.4 -21.28 c-0.12 -0.52 -0.8 -0.56 -0.92 0 l-6.2 21.28 c-0.12 0.28 0.32 0.4 0.44 0.16 l1.76 -6.04 l9.08 0 z M161.16400000000002 31.04 l4.36 -14.72 l4.44 14.72 l-8.8 0 z M197.898 30.759999999999998 l0 -1.24 c0 -0.2 0.16 -0.36 0.36 -0.36 l4.56 0 c0.2 0 0.36 0.16 0.36 0.36 l0 2.52 c0 5.88 -3.16 8.36 -9.12 8.36 c-5.56 0 -9.2 -2.2 -9.2 -8.36 l0 -10.52 c0 -5.92 3.24 -8.28 9.2 -8.28 c5.64 0 9.12 2.16 9.12 8.28 l0 0.84 c0 0.2 -0.16 0.36 -0.36 0.36 l-4.6 0 c-0.2 0 -0.36 -0.16 -0.36 -0.36 l0 -0.64 c0 -2.2 -1.64 -3.12 -3.6 -3.12 l-0.48 0 c-1.32 0 -2.2 0.36 -2.8 1.16 c-0.56 0.76 -0.76 1.76 -0.76 3.08 l0 7.92 c0 3.48 1.96 4.24 3.56 4.24 l0.48 0 c2.52 0 3.56 -1.68 3.64 -4.24 z M193.978 15.719999999999999 c-4.28 0 -6.76 1.52 -6.76 6.4 l0 9.64 c0 4.44 2.28 6.08 6.76 6.08 c4.2 0 6.72 -1.52 6.72 -6.12 c0 -0.32 -0.48 -0.32 -0.48 0 c0 4.04 -2.2 5.68 -6.24 5.68 c-3.92 0 -6.32 -1.36 -6.32 -5.64 l0 -9.64 c0 -4.16 1.96 -5.96 6.32 -5.96 c5.68 0 5.88 3.6 5.88 4 c0 0.36 0.56 0.4 0.56 0 c0 -3.32 -3.36 -4.44 -6.44 -4.44 z M231.232 13.600000000000001 c0.28 0 0.44 0.32 0.28 0.56 l-6.28 8.68 l6.64 16.72 c0.08 0.2 -0.04 0.44 -0.32 0.44 l-5.4 0 c-0.12 0 -0.24 -0.08 -0.28 -0.24 l-4.16 -11.96 l-2.04 2.8 l0 9.04 c0 0.2 -0.16 0.36 -0.36 0.36 l-4.56 0 c-0.2 0 -0.32 -0.16 -0.32 -0.36 l0 -25.68 c0 -0.2 0.12 -0.36 0.32 -0.36 l4.56 0 c0.2 0 0.36 0.16 0.36 0.36 l0 8.28 l6.28 -8.48 c0.12 -0.16 0.16 -0.16 0.32 -0.16 l4.96 0 z M216.832 16 l0 21.56 c0 0.28 0.44 0.28 0.44 0 l0 -7.76 l5 -6.64 l5.6 14.48 c0.08 0.2 0.56 0.08 0.44 -0.24 l-5.68 -14.76 l5.2 -6.92 c0.2 -0.2 -0.16 -0.56 -0.4 -0.32 l-10.16 13.6 l0 -13 c0 -0.28 -0.44 -0.28 -0.44 0 z">
		</path>
	</g>
	<g id="SvgjsG8201" featurekey="nameFeature-1" transform="matrix(0.41616359347509135,0,0,0.41616359347509135,30.43522429717571,37.48999411764208)" fill="#ffffff">
		<path d="M18.76 29.560000000000002 c-0.56 1.16 -1.36 2.04 -2.48 2.56 l3.36 7.4 c0.12 0.24 -0.04 0.48 -0.28 0.48 l-4.92 0 c-0.16 0 -0.24 -0.08 -0.28 -0.2 l-3.12 -6.8 l-2.04 0 l0 6.64 c0 0.2 -0.16 0.36 -0.36 0.36 l-4.6 0 c-0.16 0 -0.28 -0.16 -0.28 -0.36 l0 -25.68 c0 -0.2 0.12 -0.36 0.28 -0.36 l8.32 0 c4.44 0 7.12 2.52 7.12 7.2 l0 5.04 c0 1.4 -0.24 2.72 -0.72 3.72 z M14.24 24.6 l0 -2.6 c0 -2.8 -1.04 -3.08 -4.08 -3.08 l-1.16 0 l0 8.84 l1.16 0 c2.52 0 4 -0.04 4.08 -3.16 z M6.68 37.56 l0 -6.84 l5.76 0 l3.36 6.92 c0.08 0.2 0.56 0.12 0.44 -0.24 l-3.36 -6.8 c3.12 -0.44 4.2 -2.08 4.2 -5.04 l0 -5 c0 -4.4 -4 -4.76 -5.24 -4.76 l-5.4 0 c-0.08 0 -0.24 0.12 -0.24 0.24 l0 21.52 c0 0.28 0.48 0.28 0.48 0 z M16.6 20.56 l0 5 c0 4.08 -2.6 4.64 -5.12 4.64 l-4.8 0 l0 -13.88 l5.16 0 c4.32 0 4.76 2.92 4.76 4.24 z M36.054 13.84 c0.04 -0.12 0.12 -0.24 0.28 -0.24 l4.96 0 c0.16 0 0.24 0.12 0.28 0.24 l6.92 25.72 c0.04 0.24 -0.12 0.44 -0.36 0.44 l-4.56 0 c-0.12 0 -0.24 -0.08 -0.28 -0.24 l-1.56 -5.6 l-5.84 0 l-1.52 5.6 c-0.04 0.16 -0.12 0.24 -0.28 0.24 l-4.6 0 c-0.24 0 -0.4 -0.2 -0.36 -0.44 z M37.174 29.2 l3.32 0 l-1.72 -6.04 z M43.334 31.560000000000002 l1.84 6 c0.08 0.24 0.52 0.2 0.4 -0.12 l-6.4 -21.28 c-0.12 -0.52 -0.8 -0.56 -0.92 0 l-6.2 21.28 c-0.12 0.28 0.32 0.4 0.44 0.16 l1.76 -6.04 l9.08 0 z M34.374 31.04 l4.36 -14.72 l4.44 14.72 l-8.8 0 z M68.908 13.600000000000001 c2.72 0 4.76 0.76 6.12 2.24 c1.2 1.32 1.8 3.28 1.8 5.68 l0 10.6 c0 4.84 -2.8 7.88 -7.92 7.88 l-10 0 c-0.2 0 -0.32 -0.16 -0.32 -0.36 l0 -25.68 c0 -0.2 0.12 -0.36 0.32 -0.36 l10 0 z M71.58800000000001 30.92 l0 -8.2 c0 -2.52 -1.32 -4.12 -4.12 -4.12 l-3.6 0 l0 16.4 l3.6 0 c2.4 0 4.12 -1.56 4.12 -4.08 z M61.028000000000006 16.04 l0 21.52 c0 0.16 0.16 0.2 0.24 0.2 l6.52 0 c4.6 0 6.68 -2.76 6.68 -5.32 l0 -10.24 c0 -4.24 -2.24 -6.4 -6.8 -6.4 l-6.4 0 c-0.08 0 -0.24 0.04 -0.24 0.24 z M73.988 22.2 l0 10.24 c0 3.2 -3.2 4.88 -6.2 4.88 l-6.28 0 l0 -21 l6.16 0 c4.2 0 6.32 1.88 6.32 5.88 z M88.64200000000001 40 c-0.2 0 -0.32 -0.16 -0.32 -0.36 l0 -25.68 c0 -0.2 0.12 -0.36 0.32 -0.36 l4.56 0 c0.2 0 0.36 0.16 0.36 0.36 l0 25.68 c0 0.2 -0.16 0.36 -0.36 0.36 l-4.56 0 z M90.72200000000001 16 l0 21.56 c0 0.36 0.44 0.36 0.44 0 l0 -21.56 c0 -0.28 -0.44 -0.28 -0.44 0 z M110.41600000000001 13.84 c0.04 -0.12 0.12 -0.24 0.28 -0.24 l4.96 0 c0.16 0 0.24 0.12 0.28 0.24 l6.92 25.72 c0.04 0.24 -0.12 0.44 -0.36 0.44 l-4.56 0 c-0.12 0 -0.24 -0.08 -0.28 -0.24 l-1.56 -5.6 l-5.84 0 l-1.52 5.6 c-0.04 0.16 -0.12 0.24 -0.28 0.24 l-4.6 0 c-0.24 0 -0.4 -0.2 -0.36 -0.44 z M111.536 29.2 l3.32 0 l-1.72 -6.04 z M117.696 31.560000000000002 l1.84 6 c0.08 0.24 0.52 0.2 0.4 -0.12 l-6.4 -21.28 c-0.12 -0.52 -0.8 -0.56 -0.92 0 l-6.2 21.28 c-0.12 0.28 0.32 0.4 0.44 0.16 l1.76 -6.04 l9.08 0 z M108.736 31.04 l4.36 -14.72 l4.44 14.72 l-8.8 0 z M143.87 13.96 c0 -0.2 0.16 -0.36 0.36 -0.36 l4.6 0 c0.2 0 0.36 0.16 0.36 0.36 l0 25.68 c0 0.2 -0.16 0.36 -0.36 0.36 l-4.44 0 c-0.16 0 -0.32 -0.08 -0.36 -0.2 l-5.84 -13.16 l0 13 c0 0.2 -0.16 0.36 -0.36 0.36 l-4.56 0 c-0.2 0 -0.32 -0.16 -0.32 -0.36 l0 -25.68 c0 -0.2 0.12 -0.36 0.32 -0.36 l4.72 0 c0.16 0 0.24 0.12 0.28 0.2 l5.6 12.92 l0 -12.76 z M146.75 37.6 l0 -21.6 c0 -0.28 -0.52 -0.36 -0.52 0 l0 20.56 l-10.44 -20.64 c-0.12 -0.16 -0.44 -0.16 -0.44 0.08 l0 21.56 c0 0.36 0.48 0.36 0.48 0 l0 -20.52 l10.4 20.6 c0.16 0.28 0.52 0.2 0.52 -0.04 z M165.32399999999998 18.6 l-5.68 0 c-0.2 0 -0.36 -0.16 -0.36 -0.36 l0 -4.28 c0 -0.2 0.16 -0.36 0.36 -0.36 l16.68 0 c0.2 0 0.36 0.16 0.36 0.36 l0 4.28 c0 0.2 -0.16 0.36 -0.36 0.36 l-5.68 0 l0 21.04 c0 0.2 -0.16 0.36 -0.36 0.36 l-4.6 0 c-0.2 0 -0.36 -0.16 -0.36 -0.36 l0 -21.04 z M173.884 15.8 l-12.08 0 c-0.28 0 -0.28 0.52 0 0.52 l5.92 0 l0 21.2 c0 0.28 0.52 0.28 0.52 0 l0 -21.2 l5.64 0 c0.4 0 0.36 -0.52 0 -0.52 z M234.632 13.600000000000001 c0.24 0 0.4 0.2 0.32 0.44 l-6.88 25.72 c-0.04 0.16 -0.2 0.24 -0.36 0.24 l-4.4 0 c-0.16 0 -0.28 -0.08 -0.36 -0.24 l-2.72 -10.12 l-3.68 10.16 c-0.04 0.12 -0.12 0.2 -0.28 0.2 l-4.24 0 c-0.16 0 -0.28 -0.08 -0.32 -0.24 l-6.84 -25.76 c-0.04 -0.2 0.08 -0.4 0.36 -0.4 l4.6 0 c0.12 0 0.24 0.12 0.28 0.24 l4.44 16.96 l3.32 -10.04 l-1.84 -6.72 c-0.08 -0.24 0.12 -0.44 0.32 -0.44 l4.96 0 c0.16 0 0.24 0.04 0.32 0.24 l3.68 16.32 l4.4 -16.32 c0.04 -0.12 0.16 -0.24 0.32 -0.24 l4.6 0 z M220.55200000000002 21.16 l-6.04 16.08 l-6.48 -21.32 c-0.08 -0.28 -0.56 -0.16 -0.48 0.12 l6.48 21.36 c0.12 0.56 0.8 0.52 1 0 l5.72 -15.44 l4.2 15.4 c0.16 0.6 0.88 0.6 1 0.04 l6.36 -21.36 c0.12 -0.28 -0.4 -0.44 -0.48 -0.12 l-6.32 21.32 l-5.84 -21.32 c-0.04 -0.28 -0.56 -0.2 -0.44 0.12 z M254.366 13.239999999999998 c3.44 0 5.84 0.76 7.36 2.4 c1.2 1.32 1.76 3.2 1.76 5.88 l0 10.52 c0 2.76 -0.56 4.68 -1.76 5.96 c-1.56 1.6 -3.92 2.4 -7.36 2.4 c-3.56 0 -5.88 -0.8 -7.4 -2.4 c-1.16 -1.28 -1.8 -3.2 -1.8 -5.96 l0 -10.52 c0 -2.68 0.64 -4.56 1.8 -5.92 c1.56 -1.6 3.92 -2.36 7.4 -2.36 z M258.166 30.84 l0 -8 c0 -3.52 -1.88 -4.24 -3.6 -4.24 l-0.48 0 c-2.56 0 -3.56 1.64 -3.56 4.24 l0 8 c0 3.52 1.88 4.28 3.56 4.28 l0.48 0 c2.56 0 3.56 -1.72 3.6 -4.28 z M247.686 21.8 l0 9.92 c0 1.88 0.48 3.44 1.6 4.6 c1.04 1.04 2.64 1.6 4.6 1.6 l1.04 0 c3.76 0 6.2 -2.4 6.2 -6.2 l0 -9.92 c0 -4.08 -2.16 -6.28 -6.2 -6.28 l-1.04 0 c-4.08 0 -6.2 2.2 -6.2 6.28 z M254.92600000000002 37.4 l-1.04 0 c-1.88 0 -3.28 -0.48 -4.28 -1.48 s-1.52 -2.4 -1.52 -4.2 l0 -9.92 c0 -3.8 2.04 -5.8 5.8 -5.8 l1.04 0 c3.8 0 5.68 1.96 5.68 5.8 l0 9.92 c0 1.68 -0.52 3.2 -1.6 4.24 c-1.04 0.88 -2.44 1.44 -4.08 1.44 z M289.98 29.560000000000002 c-0.56 1.16 -1.36 2.04 -2.48 2.56 l3.36 7.4 c0.12 0.24 -0.04 0.48 -0.28 0.48 l-4.92 0 c-0.16 0 -0.24 -0.08 -0.28 -0.2 l-3.12 -6.8 l-2.04 0 l0 6.64 c0 0.2 -0.16 0.36 -0.36 0.36 l-4.6 0 c-0.16 0 -0.28 -0.16 -0.28 -0.36 l0 -25.68 c0 -0.2 0.12 -0.36 0.28 -0.36 l8.32 0 c4.44 0 7.12 2.52 7.12 7.2 l0 5.04 c0 1.4 -0.24 2.72 -0.72 3.72 z M285.46000000000004 24.6 l0 -2.6 c0 -2.8 -1.04 -3.08 -4.08 -3.08 l-1.16 0 l0 8.84 l1.16 0 c2.52 0 4 -0.04 4.08 -3.16 z M277.90000000000003 37.56 l0 -6.84 l5.76 0 l3.36 6.92 c0.08 0.2 0.56 0.12 0.44 -0.24 l-3.36 -6.8 c3.12 -0.44 4.2 -2.08 4.2 -5.04 l0 -5 c0 -4.4 -4 -4.76 -5.24 -4.76 l-5.4 0 c-0.08 0 -0.24 0.12 -0.24 0.24 l0 21.52 c0 0.28 0.48 0.28 0.48 0 z M287.82000000000005 20.56 l0 5 c0 4.08 -2.6 4.64 -5.12 4.64 l-4.8 0 l0 -13.88 l5.16 0 c4.32 0 4.76 2.92 4.76 4.24 z M319.074 13.600000000000001 c0.28 0 0.44 0.32 0.28 0.56 l-6.28 8.68 l6.64 16.72 c0.08 0.2 -0.04 0.44 -0.32 0.44 l-5.4 0 c-0.12 0 -0.24 -0.08 -0.28 -0.24 l-4.16 -11.96 l-2.04 2.8 l0 9.04 c0 0.2 -0.16 0.36 -0.36 0.36 l-4.56 0 c-0.2 0 -0.32 -0.16 -0.32 -0.36 l0 -25.68 c0 -0.2 0.12 -0.36 0.32 -0.36 l4.56 0 c0.2 0 0.36 0.16 0.36 0.36 l0 8.28 l6.28 -8.48 c0.12 -0.16 0.16 -0.16 0.32 -0.16 l4.96 0 z M304.67400000000004 16 l0 21.56 c0 0.28 0.44 0.28 0.44 0 l0 -7.76 l5 -6.64 l5.6 14.48 c0.08 0.2 0.56 0.08 0.44 -0.24 l-5.68 -14.76 l5.2 -6.92 c0.2 -0.2 -0.16 -0.56 -0.4 -0.32 l-10.16 13.6 l0 -13 c0 -0.28 -0.44 -0.28 -0.44 0 z M332.408 16 l0 21.56 c0 0.28 0.48 0.36 0.48 0 l0 -10.76 l7.36 0 c0.4 0 0.4 -0.56 0 -0.56 l-7.36 0 l0 -9.92 l8.96 0 c0.28 0 0.36 -0.52 0 -0.52 l-9.2 0 c-0.12 0 -0.24 0.04 -0.24 0.2 z M334.928 40 l-4.6 0 c-0.2 0 -0.32 -0.16 -0.32 -0.36 l0 -25.68 c0 -0.2 0.12 -0.36 0.32 -0.36 l13.6 0 c0.2 0 0.36 0.16 0.36 0.36 l0 4.28 c0 0.2 -0.16 0.36 -0.36 0.36 l-8.64 0 l0 5.44 l6.72 0 c0.2 0 0.32 0.16 0.32 0.36 l0 4.36 c0 0.2 -0.12 0.36 -0.32 0.36 l-6.72 0 l0 10.52 c0 0.2 -0.16 0.36 -0.36 0.36 z M363.062 13.239999999999998 c3.44 0 5.84 0.76 7.36 2.4 c1.2 1.32 1.76 3.2 1.76 5.88 l0 10.52 c0 2.76 -0.56 4.68 -1.76 5.96 c-1.56 1.6 -3.92 2.4 -7.36 2.4 c-3.56 0 -5.88 -0.8 -7.4 -2.4 c-1.16 -1.28 -1.8 -3.2 -1.8 -5.96 l0 -10.52 c0 -2.68 0.64 -4.56 1.8 -5.92 c1.56 -1.6 3.92 -2.36 7.4 -2.36 z M366.862 30.84 l0 -8 c0 -3.52 -1.88 -4.24 -3.6 -4.24 l-0.48 0 c-2.56 0 -3.56 1.64 -3.56 4.24 l0 8 c0 3.52 1.88 4.28 3.56 4.28 l0.48 0 c2.56 0 3.56 -1.72 3.6 -4.28 z M356.382 21.8 l0 9.92 c0 1.88 0.48 3.44 1.6 4.6 c1.04 1.04 2.64 1.6 4.6 1.6 l1.04 0 c3.76 0 6.2 -2.4 6.2 -6.2 l0 -9.92 c0 -4.08 -2.16 -6.28 -6.2 -6.28 l-1.04 0 c-4.08 0 -6.2 2.2 -6.2 6.28 z M363.622 37.4 l-1.04 0 c-1.88 0 -3.28 -0.48 -4.28 -1.48 s-1.52 -2.4 -1.52 -4.2 l0 -9.92 c0 -3.8 2.04 -5.8 5.8 -5.8 l1.04 0 c3.8 0 5.68 1.96 5.68 5.8 l0 9.92 c0 1.68 -0.52 3.2 -1.6 4.24 c-1.04 0.88 -2.44 1.44 -4.08 1.44 z M398.676 29.560000000000002 c-0.56 1.16 -1.36 2.04 -2.48 2.56 l3.36 7.4 c0.12 0.24 -0.04 0.48 -0.28 0.48 l-4.92 0 c-0.16 0 -0.24 -0.08 -0.28 -0.2 l-3.12 -6.8 l-2.04 0 l0 6.64 c0 0.2 -0.16 0.36 -0.36 0.36 l-4.6 0 c-0.16 0 -0.28 -0.16 -0.28 -0.36 l0 -25.68 c0 -0.2 0.12 -0.36 0.28 -0.36 l8.32 0 c4.44 0 7.12 2.52 7.12 7.2 l0 5.04 c0 1.4 -0.24 2.72 -0.72 3.72 z M394.156 24.6 l0 -2.6 c0 -2.8 -1.04 -3.08 -4.08 -3.08 l-1.16 0 l0 8.84 l1.16 0 c2.52 0 4 -0.04 4.08 -3.16 z M386.596 37.56 l0 -6.84 l5.76 0 l3.36 6.92 c0.08 0.2 0.56 0.12 0.44 -0.24 l-3.36 -6.8 c3.12 -0.44 4.2 -2.08 4.2 -5.04 l0 -5 c0 -4.4 -4 -4.76 -5.24 -4.76 l-5.4 0 c-0.08 0 -0.24 0.12 -0.24 0.24 l0 21.52 c0 0.28 0.48 0.28 0.48 0 z M396.516 20.56 l0 5 c0 4.08 -2.6 4.64 -5.12 4.64 l-4.8 0 l0 -13.88 l5.16 0 c4.32 0 4.76 2.92 4.76 4.24 z M423.49 30.759999999999998 l0 -1.24 c0 -0.2 0.16 -0.36 0.36 -0.36 l4.56 0 c0.2 0 0.36 0.16 0.36 0.36 l0 2.52 c0 5.88 -3.16 8.36 -9.12 8.36 c-5.56 0 -9.2 -2.2 -9.2 -8.36 l0 -10.52 c0 -5.92 3.24 -8.28 9.2 -8.28 c5.64 0 9.12 2.16 9.12 8.28 l0 0.84 c0 0.2 -0.16 0.36 -0.36 0.36 l-4.6 0 c-0.2 0 -0.36 -0.16 -0.36 -0.36 l0 -0.64 c0 -2.2 -1.64 -3.12 -3.6 -3.12 l-0.48 0 c-1.32 0 -2.2 0.36 -2.8 1.16 c-0.56 0.76 -0.76 1.76 -0.76 3.08 l0 7.92 c0 3.48 1.96 4.24 3.56 4.24 l0.48 0 c2.52 0 3.56 -1.68 3.64 -4.24 z M419.57 15.719999999999999 c-4.28 0 -6.76 1.52 -6.76 6.4 l0 9.64 c0 4.44 2.28 6.08 6.76 6.08 c4.2 0 6.72 -1.52 6.72 -6.12 c0 -0.32 -0.48 -0.32 -0.48 0 c0 4.04 -2.2 5.68 -6.24 5.68 c-3.92 0 -6.32 -1.36 -6.32 -5.64 l0 -9.64 c0 -4.16 1.96 -5.96 6.32 -5.96 c5.68 0 5.88 3.6 5.88 4 c0 0.36 0.56 0.4 0.56 0 c0 -3.32 -3.36 -4.44 -6.44 -4.44 z M440.344 40 c-0.2 0 -0.32 -0.16 -0.32 -0.36 l0 -25.68 c0 -0.2 0.12 -0.36 0.32 -0.36 l13.6 0 c0.2 0 0.36 0.16 0.36 0.36 l0 4.28 c0 0.2 -0.16 0.36 -0.36 0.36 l-8.64 0 l0 5.44 l6.72 0 c0.2 0 0.32 0.16 0.32 0.36 l0 4.36 c0 0.2 -0.12 0.36 -0.32 0.36 l-6.72 0 l0 5.88 l8.64 0 c0.2 0 0.36 0.16 0.36 0.36 l0 4.28 c0 0.2 -0.16 0.36 -0.36 0.36 l-13.6 0 z M442.344 16.12 l0 21.28 c0 0.24 0.16 0.32 0.32 0.32 l9.2 0 c0.36 0 0.28 -0.48 0 -0.48 l-9 0 l0 -10.44 l7.36 0 c0.24 0 0.24 -0.56 0 -0.56 l-7.36 0 l0 -9.92 l9 0 c0.28 0 0.36 -0.52 0 -0.52 l-9.2 0 c-0.16 0 -0.32 0.12 -0.32 0.32 z">
		</path>
	</g>
</svg>
